<svg width="20" height="21" viewBox="0 0 20 21" fill="none" xmlns="http://www.w3.org/2000/svg">
<path fill-rule="evenodd" clip-rule="evenodd" d="M3.85449 17.1655C3.43392 16.745 3.43392 16.0631 3.85449 15.6425L9.2391 10.2579C9.65967 9.83735 10.3415 9.83736 10.7621 10.2579L16.1467 15.6425C16.5673 16.0631 16.5673 16.745 16.1467 17.1655C15.7262 17.5861 15.0443 17.5861 14.6237 17.1655L10.0006 12.5424L5.37749 17.1655C4.95692 17.5861 4.27505 17.5861 3.85449 17.1655ZM3.85449 10.704C3.43392 10.2834 3.43392 9.60156 3.85449 9.181L9.2391 3.79638C9.65967 3.37582 10.3415 3.37582 10.7621 3.79638L16.1467 9.181C16.5673 9.60156 16.5673 10.2834 16.1467 10.704C15.7262 11.1246 15.0443 11.1246 14.6237 10.704L10.0006 6.08088L5.37749 10.704C4.95692 11.1246 4.27505 11.1246 3.85449 10.704Z" fill="white"/>
</svg>
