<svg width="26" height="26" viewBox="0 0 26 26" fill="none" xmlns="http://www.w3.org/2000/svg">
<path fill-rule="evenodd" clip-rule="evenodd" d="M20.4958 4.79934C21.0087 5.31222 21.0087 6.14377 20.4958 6.65665L13.9292 13.2233C13.4163 13.7361 12.5848 13.7361 12.0719 13.2233L5.50527 6.65665C4.99238 6.14377 4.99238 5.31222 5.50527 4.79934C6.01815 4.28645 6.8497 4.28645 7.36258 4.79934L13.0005 10.4373L18.6385 4.79934C19.1514 4.28645 19.9829 4.28645 20.4958 4.79934ZM20.4958 12.6793C21.0087 13.1921 21.0087 14.0237 20.4958 14.5366L13.9292 21.1032C13.4163 21.6161 12.5848 21.6161 12.0719 21.1032L5.50527 14.5366C4.99238 14.0237 4.99238 13.1921 5.50527 12.6793C6.01815 12.1664 6.8497 12.1664 7.36258 12.6793L13.0005 18.3172L18.6385 12.6793C19.1514 12.1664 19.9829 12.1664 20.4958 12.6793Z" fill="#003262"/>
</svg>
