<svg width="609" height="609" viewBox="0 0 609 609" fill="none" xmlns="http://www.w3.org/2000/svg">
<path d="M304.235 -0.000244141C472.26 -0.000244141 608.471 136.169 608.471 304.142C608.471 472.115 472.26 608.284 304.235 608.284C136.211 608.284 0.00013202 472.115 0 304.142C0 136.169 136.211 -0.000128694 304.235 -0.000244141ZM367.911 282.604C361.432 278.821 353.282 283.256 352.836 290.806L351.488 313.513C351.26 317.36 353.202 321.006 356.503 322.934L368.469 329.919C371.594 331.742 373.515 335.122 373.499 338.773L373.239 397.263C373.223 400.914 375.144 404.295 378.27 406.118L446.079 445.697V398.711L403.771 374.017C400.837 372.306 398.763 369.296 398.503 365.878C397.877 357.595 406.605 352.175 413.567 356.239L446.079 375.215V328.228L437.626 323.295C434.325 321.366 430.229 321.494 427.051 323.613L413.397 332.727C406.77 337.152 397.924 332.436 397.791 324.408L397.479 305.564C397.42 301.993 395.51 298.713 392.448 296.927L367.911 282.604ZM354.853 348.958C354.852 341.396 346.977 336.479 340.286 339.859L340.291 339.849L320.164 350.023C316.758 351.745 314.604 355.27 314.604 359.122V373.09C314.604 376.741 312.666 380.111 309.53 381.924L259.295 410.946C256.159 412.758 254.222 416.128 254.222 419.779V445.691H294.477V425.741C294.477 421.009 297.729 416.738 302.653 415.736C308.872 414.47 314.598 419.583 314.598 425.995V445.691H354.853V430.335C354.853 426.482 352.698 422.958 349.291 421.236L334.656 413.839C327.556 410.251 327.169 400.146 333.977 396.018L349.965 386.321C352.995 384.482 354.852 381.171 354.853 377.599V348.958ZM190.599 318.033C187.479 316.194 183.626 316.183 180.495 318.011L163 328.223V375.21L195.247 356.387C198.181 354.676 201.795 354.363 204.852 355.842C212.259 359.434 212.54 369.783 205.578 373.847L163 398.7V445.686L221.763 411.385C225.063 409.457 227.006 405.811 226.777 401.964L225.796 385.452C225.319 377.44 233.782 372.051 240.728 375.946L257.029 385.092C260.118 386.824 263.885 386.793 266.941 385.008L266.946 385.017L291.488 370.694C297.967 366.911 298.244 357.564 292.004 353.393L273.225 340.861C270.046 338.736 265.949 338.614 262.648 340.543L250.683 347.527C247.557 349.35 243.699 349.344 240.579 347.506L190.599 318.033ZM163 209.986L205.578 234.839C209.632 237.202 211.67 242.183 210.062 247C208.035 253.078 200.792 255.537 195.3 252.331L163 233.482V280.469L171.453 285.402V285.407C174.754 287.33 178.85 287.208 182.028 285.084L195.682 275.969C202.309 271.55 211.155 276.261 211.288 284.289L211.602 303.133C211.66 306.704 213.57 309.984 216.632 311.769L241.168 326.093C247.647 329.871 255.798 325.441 256.244 317.89L257.592 295.183C257.82 291.337 255.877 287.691 252.577 285.762L240.611 278.778C237.486 276.955 235.565 273.574 235.581 269.924L235.841 211.433C235.857 207.782 233.936 204.401 230.811 202.578L163 163V209.986ZM387.316 197.305C384.016 199.234 382.074 202.88 382.302 206.727L383.284 223.239C383.762 231.251 375.298 236.64 368.357 232.74L352.056 223.594C348.967 221.862 345.199 221.893 342.138 223.678L317.602 238.002C311.122 241.785 310.847 251.133 317.087 255.303L335.866 267.836C339.045 269.96 343.141 270.082 346.441 268.153L358.407 261.17C361.533 259.347 365.391 259.352 368.511 261.19L418.491 290.664C421.611 292.503 425.464 292.513 428.595 290.685L446.09 280.473V233.487L413.843 252.309C410.908 254.021 407.295 254.334 404.238 252.855C396.831 249.262 396.55 238.914 403.512 234.849L403.501 234.844L446.079 209.992V163.006L387.316 197.305ZM254.228 178.356C254.228 182.208 256.382 185.733 259.788 187.455L274.424 194.852C281.523 198.445 281.91 208.545 275.103 212.673L259.114 222.37C256.084 224.209 254.228 227.521 254.228 231.093V259.733C254.228 267.295 262.102 272.212 268.793 268.832L268.788 268.843L288.915 258.669C292.322 256.947 294.476 253.422 294.477 249.57V235.601C294.477 231.951 296.413 228.581 299.549 226.768L349.784 197.746C352.92 195.934 354.857 192.563 354.857 188.912V163H314.604V182.951C314.603 187.683 311.35 191.953 306.426 192.955C300.207 194.216 294.481 189.108 294.481 182.696V163H254.228V178.356Z" fill="#003262"/>
</svg>
