<svg width="250" height="78" viewBox="0 0 250 78" fill="none" xmlns="http://www.w3.org/2000/svg">
<path d="M2.30918 33.3838L0 32.0382V19.2232L8.82358 24.364C10.3239 25.2383 12.3026 24.5678 12.8563 22.9101C13.2955 21.5963 12.7389 20.2378 11.6314 19.5932L0 12.815V0L18.5242 10.7946C19.378 11.2917 19.9027 12.2138 19.8984 13.2096L19.8273 29.1622C19.823 30.158 20.3477 31.08 21.2015 31.5772L24.4703 33.482C25.372 34.0081 25.9025 35.0024 25.8402 36.0517L25.472 42.2446C25.3502 44.304 23.1237 45.5123 21.3537 44.4818L14.6509 40.5753C13.8145 40.0883 13.2926 39.1937 13.2767 38.2196L13.1912 33.0803C13.1549 30.8907 10.7385 29.6059 8.92795 30.8112L5.19819 33.2971C4.32989 33.8766 3.21082 33.9098 2.30918 33.3852V33.3838ZM28.3958 60.553L35.1001 56.6465C36.87 55.6146 36.9454 53.0651 35.2407 51.9277L30.1106 48.5097C29.2423 47.9302 28.1233 47.8969 27.2216 48.423L23.9528 50.3278C23.099 50.825 22.0452 50.8236 21.1928 50.3221L7.53925 42.2836C6.6869 41.7821 5.63451 41.7792 4.77926 42.2778L0 45.0628V57.8778L8.80909 52.7443C9.6107 52.2775 10.5979 52.1922 11.4328 52.5954C13.4564 53.5753 13.5333 56.3979 11.6314 57.5064L0 64.2846V77.0996L16.0526 67.7445C16.9543 67.2184 17.4848 66.2241 17.4225 65.1749L17.1543 60.6715C17.0238 58.4863 19.3359 57.0164 21.2334 58.0787L25.6865 60.5732C26.5302 61.0458 27.5594 61.0371 28.3943 60.5501L28.3958 60.553ZM28.8988 28.8674L34.397 26.0925C35.3277 25.6228 35.9162 24.6617 35.9162 23.611V19.8013C35.9162 18.8056 36.4453 17.8864 37.302 17.3921L51.0251 9.47649C51.8818 8.98221 52.4109 8.06303 52.4109 7.06726V0H41.4144V5.44136C41.4144 6.73196 40.5258 7.89683 39.1806 8.16998C37.4817 8.51395 35.9176 7.12073 35.9176 5.37198V0H24.9211V4.18833C24.9211 5.23902 25.5097 6.20011 26.4403 6.66982L30.4382 8.68738C32.3778 9.66726 32.4836 12.4219 30.6238 13.5477L26.2562 16.1925C25.4285 16.694 24.9211 17.5973 24.9211 18.5714V26.383C24.9211 28.4454 27.0723 29.7865 28.9002 28.8645L28.8988 28.8674ZM72.1324 43.8054L68.4027 46.2913C66.5922 47.498 64.1757 46.2118 64.1395 44.0222L64.054 38.8829C64.038 37.9088 63.5162 37.0142 62.6798 36.5272L55.9769 32.6207C54.207 31.5888 51.9804 32.7984 51.8587 34.8579L51.4905 41.0508C51.4281 42.1 51.9587 43.0944 52.8603 43.6204L56.1291 45.5253C56.9829 46.0224 57.5077 46.9445 57.5033 47.9403L57.4323 63.8929C57.4279 64.8887 57.9527 65.8108 58.8065 66.3079L77.3306 77.1025V64.2875L65.7731 57.5526C64.9715 57.0858 64.4047 56.2649 64.3337 55.3327C64.1627 53.0738 66.5472 51.5953 68.4491 52.7038L77.3306 57.8793V45.0642L75.0215 43.7187C74.1198 43.1927 73.0007 43.2273 72.1324 43.8054ZM48.4318 48.2337L42.9336 51.0086C42.003 51.4783 41.4144 52.4393 41.4144 53.49V57.2997C41.4144 58.2955 40.8853 59.2147 40.0286 59.7089L26.3055 67.6245C25.4488 68.1188 24.9197 69.038 24.9197 70.0338V77.101H35.9162V71.6597C35.9162 70.3691 36.8048 69.2042 38.15 68.9311C39.8489 68.5856 41.413 69.9803 41.413 71.7291V77.101H52.4095V72.9127C52.4095 71.862 51.821 70.9009 50.8903 70.4312L46.8924 68.4137C44.9529 67.4352 44.847 64.6791 46.7069 63.5533L51.0744 60.9085C51.9021 60.407 52.4095 59.5037 52.4095 58.5296V50.7181C52.4095 48.6557 50.2583 47.3145 48.4304 48.2366L48.4318 48.2337ZM65.6992 19.5947L77.3306 12.8165V0.00144556L61.278 9.35653C60.3764 9.8826 59.8458 10.8769 59.9082 11.9262L60.1763 16.4296C60.3068 18.6148 57.9947 20.0846 56.0987 19.0209L51.6456 16.5264C50.8019 16.0538 49.7727 16.0625 48.9363 16.5495L42.2335 20.456C40.4635 21.4879 40.3881 24.0373 42.0928 25.1748L47.2229 28.5928C48.0912 29.1723 49.2103 29.2056 50.1119 28.6795L53.3807 26.7746C54.2345 26.2775 55.2883 26.2789 56.1407 26.7804L69.7943 34.8189C70.6466 35.3204 71.699 35.3233 72.5543 34.8247L77.3335 32.0397V19.2247L68.5244 24.3582C67.7228 24.825 66.7357 24.9103 65.9007 24.5071C63.8771 23.5272 63.8003 20.7046 65.7021 19.5961L65.6992 19.5947Z" fill="#84CC16"/>
<path d="M120.998 43.5983H131.113V77.1555H124.559V54.4579C124.559 53.8046 124.567 52.8912 124.583 51.7148C124.598 50.5384 124.606 49.6322 124.606 48.9934L118.235 77.1555H111.407L105.083 48.9934C105.083 49.6308 105.09 50.5384 105.106 51.7148C105.121 52.8912 105.129 53.8061 105.129 54.4579V77.1555H98.5757V43.5983H108.805L114.925 69.9842L120.999 43.5983H120.998ZM105.561 0.000976562H98.5742V33.5582H105.561V0.000976562ZM205.742 8.74327H199.142V33.5582H205.742V8.74327ZM131.696 10.1668C130.059 8.82421 127.954 8.15217 125.381 8.15217C123.326 8.15217 121.628 8.65367 120.289 9.65523C119.542 10.2174 118.751 11.1352 117.914 12.4099V8.78952H111.635V33.5596H118.12V20.1275C118.12 18.5941 118.333 17.3353 118.76 16.3482C119.582 14.4809 121.096 13.5473 123.304 13.5473C125.1 13.5473 126.318 14.1846 126.957 15.4593C127.308 16.1574 127.482 17.1589 127.482 18.464V33.5582H134.15V16.8482C134.15 13.7366 133.331 11.5095 131.696 10.1668ZM140.464 33.444H146.538C146.67 33.444 146.777 33.337 146.777 33.2055V14.082H153.534V8.72593H146.823C146.952 6.84133 148.486 5.33972 150.41 5.33972H153.535V0.00242102H149.06C144.179 0.00242102 140.222 3.9465 140.222 8.81265V33.2055C140.222 33.337 140.329 33.444 140.463 33.444H140.464ZM164.184 8.74327H157.584V33.5582H164.184V8.74327ZM210.169 54.9868C209.361 53.8942 208.33 53.082 207.075 52.5516C205.82 52.0197 204.422 51.7553 202.884 51.7553C201.515 51.7553 200.208 52.04 198.968 52.6094C197.727 53.1788 196.635 54.1833 195.692 55.6256L195.686 43.6012H189.2L189.206 77.1584H195.692V63.7754C195.692 61.6509 196.137 60.0149 197.027 58.8688C197.917 57.7227 199.223 57.1504 200.943 57.1504C202.664 57.1504 203.73 57.727 204.322 58.8803C204.779 59.6998 205.007 60.7779 205.007 62.1134V77.1584H211.651V62.638C211.651 60.4224 211.576 58.8254 211.424 57.8455C211.272 56.8671 210.853 55.9147 210.167 54.9883L210.169 54.9868ZM158.537 61.6726C158.704 62.8071 158.774 64.4431 158.743 66.5763H141.709C141.801 69.0592 142.585 70.8007 144.061 71.7994C144.959 72.4194 146.039 72.7301 147.303 72.7301C148.643 72.7301 149.731 72.3515 150.569 71.5956C151.026 71.1866 151.429 70.6186 151.78 69.8931H158.424C158.258 71.3615 157.488 72.853 156.118 74.3662C153.987 76.7725 151.003 77.9764 147.167 77.9764C144.001 77.9764 141.208 76.9618 138.787 74.9341C136.366 72.9065 135.156 69.6055 135.156 65.0342C135.156 60.7505 136.249 57.4654 138.433 55.1791C140.618 52.8941 143.453 51.7509 146.939 51.7509C149.009 51.7509 150.875 52.1368 152.533 52.9086C154.193 53.6803 155.563 54.8987 156.644 56.5651C157.618 58.0334 158.25 59.7359 158.539 61.674L158.537 61.6726ZM151.984 62.3085C151.877 60.5987 151.356 59.2995 150.42 58.415C149.483 57.529 148.322 57.0853 146.938 57.0853C145.43 57.0853 144.262 57.555 143.433 58.493C142.604 59.431 142.082 60.7028 141.869 62.3085H151.984ZM243.081 8.74327L237.944 27.0473L232.509 8.74327H225.27L234.404 34.6508C234.465 34.8329 234.332 35.3344 234.004 36.1538C233.676 36.9733 233.323 37.5124 232.941 37.7696C232.546 38.0428 232.059 38.2176 231.48 38.2928C230.902 38.3694 230.293 38.3911 229.654 38.3607L228.832 38.3145V43.5058C229.532 43.5506 230.057 43.5781 230.408 43.5853C230.758 43.5925 231.222 43.5969 231.801 43.5969C234.678 43.5969 236.596 43.0318 237.555 41.9016C238.515 40.7714 239.815 37.8534 241.461 33.1477L250 8.74183H243.081V8.74327ZM218.26 26.6629V14.082H223.642V8.74472H218.26L218.257 0.00242102H211.817L211.821 27.2049C211.821 30.7139 214.704 33.5596 218.26 33.5596H225.148V28.9377H220.305C219.195 28.9377 218.262 27.7584 218.26 26.6629ZM193.046 33.5596V16.8497C193.046 13.738 192.227 11.5109 190.591 10.1683C188.954 8.82565 186.849 8.15361 184.276 8.15361C182.221 8.15361 180.523 8.65512 179.184 9.65667C178.437 10.2189 177.646 11.1366 176.809 12.4113L176.804 8.74617H170.524L170.53 33.5611H177.015V20.1289C177.015 18.5955 177.228 17.3367 177.655 16.3496C178.476 14.4824 179.991 13.5487 182.199 13.5487C183.995 13.5487 185.213 14.1861 185.852 15.4608C186.201 16.1588 186.377 17.1604 186.377 18.4655V33.5596H193.045H193.046ZM176.577 62.2897C172.695 61.4428 170.436 60.8459 169.796 60.499C169.157 60.1666 168.837 59.6304 168.837 58.889C168.837 58.2993 169.137 57.7863 169.738 57.3484C170.34 56.9105 171.347 56.6908 172.764 56.6908C174.484 56.6908 175.702 57.1287 176.417 58.006C176.798 58.4901 177.033 59.1477 177.124 59.9787H183.633C183.343 56.9567 182.225 54.8264 180.275 53.5864C178.311 52.3623 175.777 51.7509 172.671 51.7509C169.398 51.7509 166.859 52.5704 165.056 54.2107C163.253 55.8497 162.35 57.8109 162.35 60.0929C162.35 62.0266 162.928 63.508 164.085 64.5356C165.242 65.579 167.229 66.4476 170.044 67.1428C173.957 68.0649 176.217 68.7152 176.825 69.0925C177.434 69.4697 177.739 70.0217 177.739 70.7473C177.739 71.4728 177.362 72.0697 176.608 72.4469C175.854 72.8255 174.838 73.0134 173.559 73.0134C171.382 73.0134 169.891 72.5827 169.083 71.7214C168.627 71.2372 168.329 70.4206 168.193 69.2731H161.593C161.593 71.811 162.525 73.9008 164.391 75.5397C166.255 77.1801 169.144 77.9995 173.056 77.9995C176.969 77.9995 179.727 77.2249 181.563 75.6756C183.398 74.1277 184.314 72.1289 184.314 69.6807C184.314 67.8221 183.675 66.2728 182.396 65.0342C181.102 63.8101 179.161 62.8952 176.573 62.2911L176.577 62.2897ZM164.184 0.000976562H157.584V5.33827H164.184V0.000976562ZM205.742 0.000976562H199.142V5.33827H205.742V0.000976562Z" fill="#003262"/>
</svg>
