<svg width="111" height="90" viewBox="0 0 111 90" fill="none" xmlns="http://www.w3.org/2000/svg">
<path d="M48.3389 32.334C48.3389 46.6257 44.4235 59.1072 36.5938 69.7783C28.7639 80.6401 16.7325 87.3099 0.5 89.7871V68.9209C9.85758 67.7775 16.0646 64.7289 19.1201 59.7744C21.7369 55.5314 23.2326 50.1004 23.6084 43.4814H1.07324V0.320312H48.3389V32.334ZM110.5 32.334C110.5 46.6257 106.585 59.1072 98.7549 69.7783C90.9251 80.6401 78.8937 87.3099 62.6611 89.7871V68.9209C72.0187 67.7775 78.2257 64.7289 81.2812 59.7744C83.898 55.5314 85.3938 50.1003 85.7695 43.4814H63.2344V0.320312H110.5V32.334Z" fill="#0060BA"/>
</svg>
